<?xml version="1.0" standalone="no"?>
<!DOCTYPE svg PUBLIC "-//W3C//DTD SVG 20010904//EN"
 "http://www.w3.org/TR/2001/REC-SVG-20010904/DTD/svg10.dtd">
<svg version="1.0" xmlns="http://www.w3.org/2000/svg"
 width="700.000000pt" height="700.000000pt" viewBox="0 0 700.000000 700.000000"
 preserveAspectRatio="xMidYMid meet">
<metadata>
Created by potrace 1.14, written by Peter Selinger 2001-2017
</metadata>
<g transform="translate(0.000000,700.000000) scale(0.100000,-0.100000)"
fill="#000000" stroke="none">
<path d="M3278 6995 c-1 -1 -42 -5 -89 -9 -47 -4 -95 -8 -105 -10 -10 -2 -41
-7 -69 -10 -99 -13 -222 -36 -325 -62 -58 -14 -114 -27 -126 -30 -94 -18 -416
-140 -579 -220 -180 -87 -448 -247 -555 -331 -8 -6 -51 -40 -95 -74 -340 -264
-650 -624 -875 -1014 -47 -81 -170 -327 -170 -339 0 -3 -11 -29 -24 -58 -41
-92 -114 -303 -142 -413 -4 -16 -8 -34 -10 -40 -5 -16 -25 -98 -30 -120 -39
-194 -47 -242 -60 -350 -26 -230 -26 -667 1 -826 2 -13 6 -46 9 -74 9 -78 22
-152 51 -285 21 -96 91 -339 114 -395 5 -11 25 -65 46 -120 63 -166 251 -535
312 -610 4 -6 29 -42 54 -80 155 -236 406 -510 659 -722 81 -67 304 -233 314
-233 3 0 32 -18 65 -40 33 -22 63 -40 67 -40 4 0 15 -6 23 -14 29 -25 303
-161 431 -213 175 -71 377 -138 483 -159 10 -2 27 -6 37 -9 22 -7 40 -11 140
-30 96 -18 123 -23 179 -31 25 -3 57 -8 71 -10 163 -25 682 -25 842 1 13 2 46
6 73 10 28 3 59 8 70 10 11 3 31 7 45 9 282 46 618 153 894 286 709 339 1277
897 1628 1600 127 254 238 568 292 830 8 36 19 96 21 110 9 59 17 107 20 120
2 8 7 47 11 85 3 39 8 84 11 100 8 59 10 502 3 590 -15 160 -34 303 -55 395
-3 14 -8 39 -11 55 -9 53 -62 259 -74 290 -7 17 -14 39 -16 51 -15 77 -136
368 -227 544 -336 649 -873 1181 -1526 1512 -322 163 -719 292 -1021 333 -19
3 -46 7 -60 10 -13 2 -52 7 -86 11 -33 3 -74 8 -90 10 -32 5 -540 14 -546 9z"/>
</g>
</svg>
